<svg width="24" height="24" xmlns="http://www.w3.org/2000/svg">

 <g>
  <title>background</title>
  <rect fill="none" id="canvas_background" height="402" width="582" y="-1" x="-1"/>
 </g>
 <g>
  <title fill="#1c1c1c" stroke="#1c1c1c">Layer 1</title>
  <path fill="#1c1c1c" stroke="#1c1c1c" id="svg_2" d="m16,17c0.3,0 0.5,-0.1 0.7,-0.3c0.4,-0.4 0.4,-1 0,-1.4l-2,-2c0.5,-0.7 0.7,-1.6 0.7,-2.5c0,-2.6 -2.1,-4.7 -4.7,-4.7c-2.6,-0.1 -4.7,2 -4.7,4.6c0,2.6 2.1,4.7 4.7,4.7c0.9,0 1.8,-0.3 2.5,-0.8l2,2c0.3,0.3 0.5,0.4 0.8,0.4zm-5.3,-3.6c-1.5,0 -2.7,-1.2 -2.7,-2.7s1.3,-2.7 2.7,-2.7s2.7,1.2 2.7,2.7s-1.2,2.7 -2.7,2.7z"/>
  <path fill="#1c1c1c" stroke="#1c1c1c" id="svg_3" d="m17,3l-1,0c-0.6,0 -1,0.4 -1,1s0.4,1 1,1l1,0c1.1,0 2,0.9 2,2l0,1.1c0,0.6 0.4,1 1,1s1,-0.4 1,-1l0,-1.1c0,-2.2 -1.8,-4 -4,-4z"/>
  <path fill="#1c1c1c" stroke="#1c1c1c" id="svg_4" d="m20,15c-0.6,0 -1,0.4 -1,1l0,1c0,1.1 -0.9,2 -2,2l-1,0c-0.6,0 -1,0.4 -1,1s0.4,1 1,1l1,0c2.2,0 4,-1.8 4,-4l0,-1c0,-0.6 -0.4,-1 -1,-1z"/>
  <path fill="#1c1c1c" stroke="#1c1c1c" id="svg_5" d="m8,19l-1,0c-1.1,0 -2,-0.9 -2,-2l0,-1c0,-0.6 -0.4,-1 -1,-1s-1,0.4 -1,1l0,1c0,2.2 1.8,4 4,4l1,0c0.6,0 1,-0.4 1,-1s-0.4,-1 -1,-1z"/>
  <path fill="#1c1c1c" stroke="#1c1c1c" id="svg_6" d="m4,9c0.6,0 1,-0.4 1,-1l0,-1c0,-1.1 0.9,-2 2,-2l1,0c0.6,0 1,-0.4 1,-1s-0.4,-1 -1,-1l-1,0c-2.2,0 -4,1.8 -4,4l0,1c0,0.5 0.4,1 1,1z"/>
 </g>
</svg>